<?xml version="1.0" encoding="UTF-8"?><svg id="Livello_2" xmlns="http://www.w3.org/2000/svg" xmlns:xlink="http://www.w3.org/1999/xlink" viewBox="0 0 1080 274.73"><defs><style>.cls-1{fill:#1a1659;}.cls-2{fill:#ea0029;}.cls-3{fill:#fff;}.cls-4{fill:#db052c;}.cls-5{fill:#0032a0;}.cls-6{fill:#00a445;}.cls-7{fill:#2e6be6;}.cls-8{fill:url(#Sfumatura_senza_nome_2);}.cls-9{fill:#fa824c;}.cls-10{fill:url(#Sfumatura_senza_nome);}.cls-11{fill:#24195d;}.cls-12{fill:#e3e3e2;}</style><linearGradient id="Sfumatura_senza_nome" x1="977.89" y1="139.14" x2="1022.1" y2="139.14" gradientTransform="translate(0 276.3) scale(1 -1)" gradientUnits="userSpaceOnUse"><stop offset="0" stop-color="#31ecff"/><stop offset=".05" stop-color="#2de1ff"/><stop offset=".3" stop-color="#1bb2ff"/><stop offset=".51" stop-color="#0d8fff"/><stop offset=".69" stop-color="#057aff"/><stop offset=".81" stop-color="#0373ff"/></linearGradient><linearGradient id="Sfumatura_senza_nome_2" x1="1032.75" y1="247.18" x2="993.34" y2="138.88" gradientTransform="translate(0 276.3) scale(1 -1)" gradientUnits="userSpaceOnUse"><stop offset="0" stop-color="#31ecff"/><stop offset=".05" stop-color="#2de1ff"/><stop offset=".29" stop-color="#1bb2ff"/><stop offset=".51" stop-color="#0d8fff"/><stop offset=".69" stop-color="#057aff"/><stop offset=".8" stop-color="#0373ff"/></linearGradient></defs><g id="Livello_1-2"><g><g id="FC_logo"><path class="cls-7" d="M196.49,148.16l-1.98-6.63h-21.58l-1.98,6.63c-.37,1.22-1.49,2.05-2.76,2.05h-13.95c-1.59,0-2.88-1.29-2.88-2.87,0-.34,.06-.68,.18-1l20.38-55.85c.41-1.14,1.49-1.89,2.7-1.89h18.94c1.21,0,2.29,.75,2.7,1.89l20.38,55.85c.55,1.49-.21,3.14-1.7,3.7-.32,.12-.66,.18-1,.18h-14.73c-1.27,0-2.39-.84-2.76-2.05m-19.44-20.42h13.36l-6.45-21.93h-.36l-6.56,21.93h0Z"/><path class="cls-7" d="M398.09,148.16l-1.98-6.63h-21.58l-1.98,6.63c-.37,1.22-1.49,2.05-2.76,2.05h-13.95c-1.58,0-2.87-1.27-2.88-2.86,0-.35,.06-.69,.18-1.02l20.37-55.85c.41-1.14,1.5-1.89,2.7-1.89h18.98c1.21,0,2.29,.75,2.7,1.89l20.38,55.85c.55,1.49-.21,3.14-1.7,3.7-.32,.12-.66,.18-1,.18h-14.69c-1.27,0-2.39-.84-2.75-2.05m-19.45-20.42h13.34l-6.44-21.93h-.36l-6.53,21.93h-.01Z"/><path class="cls-7" d="M534.57,148.16l-1.98-6.63h-21.58l-1.98,6.63c-.36,1.22-1.48,2.05-2.75,2.05h-13.95c-1.59,0-2.88-1.29-2.88-2.87,0-.34,.06-.68,.18-1l20.38-55.85c.41-1.14,1.49-1.89,2.7-1.89h18.98c1.21,0,2.29,.75,2.7,1.89l20.38,55.85c.55,1.49-.21,3.14-1.7,3.7-.32,.12-.66,.18-1,.18h-14.73c-1.27,0-2.39-.84-2.76-2.05m-19.44-20.42h13.34l-6.45-21.93h-.36l-6.53,21.93h0Z"/><path class="cls-7" d="M260.6,140.27l-17.3-19.95v27.05c0,1.58-1.27,2.86-2.84,2.86h-12.47c-1.58,0-2.86-1.28-2.86-2.86h0v-55.9c0-1.58,1.28-2.85,2.86-2.85h13.09c.85,0,1.65,.37,2.2,1.02l25.01,29.33v-27.5c0-1.58,1.28-2.85,2.85-2.85h12.46c1.58,0,2.85,1.28,2.85,2.85v55.89c0,1.58-1.28,2.86-2.85,2.86h-1.3c-8.33-.02-16.25-3.64-21.7-9.94"/><path class="cls-7" d="M334.71,104.37v42.95c0,1.59-1.28,2.89-2.88,2.89h-14.02c-1.6,0-2.89-1.29-2.89-2.89v-42.95h-17.34c-1.59,0-2.88-1.29-2.88-2.88h0v-10c0-1.59,1.29-2.88,2.88-2.88h54.39c1.59,0,2.88,1.29,2.88,2.88v9.99c0,1.59-1.29,2.88-2.88,2.88h-17.26Z"/><path class="cls-7" d="M475.62,94.39c4.65,3.99,7.26,9.48,7.84,16.46,.13,1.58-1.05,2.96-2.63,3.09h-13.48c-1.44-.02-2.64-1.09-2.82-2.51-.26-2.22-1.18-4.31-2.65-5.99-1.88-2.09-4.55-3.13-8.01-3.1-4,0-6.94,1.25-8.81,3.76-1.88,2.51-2.82,6-2.82,10.47v5.74c0,4.42,.94,7.89,2.82,10.42s4.76,3.8,8.63,3.81c3.82,0,6.72-.98,8.69-2.95,1.54-1.59,2.51-3.63,2.77-5.83,.19-1.42,1.39-2.48,2.82-2.5h12.64c1.59,0,2.87,1.29,2.87,2.88v.22c-.57,6.92-3.12,12.34-7.63,16.28-5.17,4.48-12.46,6.72-21.89,6.71-10.5,0-18.45-2.69-23.86-8.06-5.4-5.37-8.11-13.31-8.11-23.81s2.7-18.45,8.11-23.82c5.4-5.37,13.36-8.06,23.86-8.06,9.13,0,16.37,2.28,21.7,6.85"/><path class="cls-7" d="M672.41,94.39c4.65,3.99,7.26,9.48,7.84,16.46,.12,1.58-1.06,2.97-2.64,3.09h-13.47c-1.44-.02-2.64-1.09-2.83-2.51-.26-2.22-1.18-4.31-2.65-5.99-1.88-2.09-4.55-3.13-8.01-3.1-3.99,0-6.94,1.25-8.81,3.76s-2.82,5.99-2.82,10.47v5.74c0,4.42,.94,7.89,2.82,10.42s4.76,3.8,8.64,3.81c3.81,0,6.71-.98,8.68-2.95,1.54-1.59,2.51-3.63,2.77-5.83,.19-1.42,1.39-2.48,2.82-2.5h12.64c1.59,0,2.87,1.29,2.87,2.88v.22c-.57,6.92-3.11,12.34-7.62,16.28-5.17,4.48-12.46,6.72-21.89,6.71-10.5,0-18.45-2.69-23.86-8.06-5.4-5.37-8.11-13.31-8.11-23.81s2.7-18.45,8.11-23.82c5.4-5.37,13.36-8.06,23.86-8.06,9.13,0,16.37,2.28,21.7,6.85"/><path class="cls-7" d="M566.39,88.62h14c1.59,0,2.89,1.29,2.89,2.88v42.96h28.68c1.59,0,2.89,1.28,2.89,2.88h0v9.99c0,1.6-1.29,2.89-2.89,2.89h-42.71c-3.18,0-5.75-2.57-5.75-5.75v-52.96c0-1.59,1.3-2.88,2.89-2.88"/><path class="cls-7" d="M691.51,147.32v-55.8c0-1.59,1.3-2.88,2.89-2.88h14c1.59,0,2.89,1.29,2.89,2.88v55.8c0,1.59-1.29,2.88-2.88,2.88h-13.98c-1.59,0-2.89-1.28-2.89-2.88h0"/><path class="cls-7" d="M780.38,95.69c5.78,5.43,8.68,13.34,8.68,23.72s-2.89,18.29-8.68,23.72c-5.8,5.46-14,8.18-24.62,8.18s-18.81-2.71-24.58-8.14c-5.78-5.43-8.66-13.35-8.66-23.77s2.88-18.34,8.64-23.77c5.76-5.4,13.95-8.11,24.58-8.11s18.83,2.72,24.62,8.15m-34.29,10.47c-2.21,2.58-3.31,6.05-3.31,10.39v5.74c0,4.36,1.1,7.81,3.31,10.38,2.21,2.56,5.43,3.85,9.67,3.88,4.23,0,7.47-1.29,9.71-3.88,2.24-2.58,3.36-6.04,3.36-10.38v-5.74c0-4.36-1.12-7.82-3.36-10.39-2.24-2.57-5.47-3.86-9.71-3.88-4.24,0-7.47,1.29-9.67,3.88"/><path class="cls-7" d="M58.95,45.65c-9.34-.06-18.55,2.22-26.79,6.63C-2.72,71.11-10.42,124.47,14.92,171.48c19.34,35.83,52.31,57.62,82.35,57.62,9.32,.07,18.52-2.2,26.74-6.6,20.05-10.85,31.12-33.06,32.09-58.94,.09-3.88-1.2-7.25-5.36-7.39h-.19c-3.88,0-5.88,3.88-6.55,6.1-3.3,11.18-9.94,20.34-19.66,25.58-5.16,2.81-10.93,4.27-16.8,4.26-19.91,0-40.91-16.28-54.41-41.26-17.41-32.27-15.79-66.92,8.15-79.83,5.84-3.17,12.38-4.84,19.03-4.86,9.1-.04,17.89,3.32,24.65,9.41,1.63,1.53,3.75,2.4,5.98,2.46,3.83,0,6.34-3.1,2.8-6.82-15.57-16.55-35.65-25.58-54.8-25.58"/><path class="cls-9" d="M147.9,88.62H76.45c-4.82,0-9.13,3.02-10.78,7.55l-12.86,35.33c-.48,1.31-.48,2.75,0,4.06,1.6,4.26,3.49,8.4,5.65,12.4,3.2,5.96,7.01,11.56,11.39,16.72,1.03,1.2,2.84,1.35,4.04,.32,.38-.32,.66-.73,.83-1.2l3.82-10.48c.93-1.97,2.95-3.19,5.13-3.1h31.47c3.69,.04,7-2.24,8.28-5.7l3.67-10.08c1.11-2.97-.4-6.28-3.37-7.39-.66-.24-1.35-.37-2.05-.36h-27.13c-2.41,0-4.36-1.96-4.36-4.37,0-.52,.09-1.03,.27-1.51l.88-2.33c.93-2.48,3.3-4.13,5.95-4.13h43.4c3.67,0,6.96-2.3,8.22-5.75l4.48-12.28c1.1-2.99-.44-6.3-3.43-7.4-.64-.23-1.31-.35-2-.35"/></g><g><rect class="cls-3" x="920.03" width="159.97" height="221.57"/><path class="cls-11" d="M942.08,187.28c-.14-.14-.21-.38-.03-.58l2.62-2.99c.14-.17,.34-.17,.52-.03,1.55,1.24,3.65,2.41,6.13,2.41s3.82-1.13,3.82-2.79c0-1.38-.83-2.24-3.61-2.62l-1.24-.17c-4.75-.65-7.4-2.89-7.4-7.02s3.24-7.16,8.3-7.16c3.1,0,5.99,.93,7.95,2.44,.21,.14,.24,.28,.07,.52l-2.1,3.13c-.14,.17-.31,.21-.48,.1-1.79-1.17-3.51-1.79-5.44-1.79-2.06,0-3.13,1.07-3.13,2.55,0,1.34,.96,2.2,3.65,2.58l1.24,.17c4.82,.65,7.37,2.86,7.37,7.09s-3.13,7.36-9.19,7.36c-3.65,0-7.19-1.45-9.02-3.2"/><path class="cls-11" d="M963.01,167.04c0-.21,.14-.34,.34-.34h15.01c.21,0,.34,.14,.34,.34v3.68c0,.21-.14,.34-.34,.34h-10.09c-.14,0-.21,.07-.21,.21v4.65c0,.14,.07,.21,.21,.21h8.4c.21,0,.34,.14,.34,.34v3.65c0,.21-.14,.34-.34,.34h-8.4c-.14,0-.21,.07-.21,.21v4.85c0,.14,.07,.21,.21,.21h10.09c.21,0,.34,.14,.34,.34v3.68c0,.21-.14,.34-.34,.34h-15.01c-.21,0-.34-.14-.34-.34v-22.72h0Z"/><path class="cls-11" d="M994.71,190.1c-.31,0-.41-.1-.52-.34l-4.03-8.57h-3.13c-.14,0-.21,.07-.21,.21v8.36c0,.21-.14,.34-.34,.34h-4.37c-.21,0-.34-.14-.34-.34v-22.72c0-.21,.14-.34,.34-.34h9.33c4.78,0,7.95,2.99,7.95,7.26,0,2.99-1.58,5.37-4.16,6.51l4.61,9.22c.1,.21,0,.41-.24,.41h-4.89Zm-.38-16.14c0-1.75-1.24-2.89-3.17-2.89h-4.13c-.14,0-.21,.07-.21,.21v5.4c0,.14,.07,.21,.21,.21h4.13c1.93,0,3.17-1.14,3.17-2.93"/><path class="cls-11" d="M1002.9,166.7h4.37c.19,0,.34,.15,.34,.34v22.72c0,.19-.15,.34-.34,.34h-4.37c-.19,0-.34-.15-.34-.34v-22.72c0-.19,.15-.34,.34-.34Z"/><path class="cls-11" d="M1011.4,167.04c0-.21,.14-.34,.34-.34h15.01c.21,0,.34,.14,.34,.34v3.68c0,.21-.14,.34-.34,.34h-10.08c-.14,0-.21,.07-.21,.21v4.65c0,.14,.07,.21,.21,.21h8.4c.21,0,.34,.14,.34,.34v3.65c0,.21-.14,.34-.34,.34h-8.4c-.14,0-.21,.07-.21,.21v4.85c0,.14,.07,.21,.21,.21h10.08c.21,0,.34,.14,.34,.34v3.68c0,.21-.14,.34-.34,.34h-15.01c-.21,0-.34-.14-.34-.34v-22.72h0Z"/><path class="cls-11" d="M1043.89,167.04c.07-.21,.21-.34,.45-.34h4.34c.24,0,.38,.14,.45,.34l7.92,22.72c.07,.21,0,.34-.24,.34h-4.47c-.24,0-.38-.1-.45-.34l-1.34-4.09h-8.19l-1.31,4.09c-.07,.24-.21,.34-.45,.34h-4.51c-.24,0-.31-.14-.24-.34l8.05-22.72h-.01Zm5.27,14.32l-2.65-8.19h-.1l-2.65,8.19h5.4Z"/><g><rect class="cls-6" x="942.95" y="201.59" width="38.04" height="8.53"/><rect class="cls-12" x="980.98" y="201.59" width="38.04" height="8.53"/><rect class="cls-4" x="1019.02" y="201.59" width="38.04" height="8.53"/></g><g><g><polygon class="cls-1" points="999.99 155.24 942.94 119.08 977.89 119.08 999.99 155.24"/><polygon class="cls-1" points="999.99 155.24 1057.08 119.08 1022.1 119.08 999.99 155.24"/><polygon class="cls-1" points="999.98 60.73 977.89 119.08 999.99 119.08 1022.1 119.08 999.98 60.73"/><polygon class="cls-10" points="977.89 119.08 999.99 155.24 1022.1 119.08 977.89 119.08"/></g><path class="cls-8" d="M999.98,60.73l9.55,25.2h-12.05l-8.22,21.7h28.49l4.34,11.46h34.98l-41.35-96.16h-31.49l-41.29,96.15h34.94l22.1-58.36h0Z"/></g><g><rect class="cls-5" x="920.03" y="221.58" width="159.97" height="53.15"/><g><path class="cls-3" d="M1008.49,233.04c.6,0,.72,.08,.72,2.22v1.97c0,2.05-.16,2.3-.72,2.3h-6.85v23.08c0,.52-.64,.64-2.94,.64h-1.21c-2.34,0-2.74-.12-2.74-.64v-23.08h-6.85c-.56,0-.72-.16-.72-2.3v-1.97c0-2.22,.12-2.22,.72-2.22h20.59Zm12.29,.65c0-.44-.64-.65-2.86-.65h-1.29c-2.34,0-2.74,.2-2.74,.65v28.92c0,.52,.4,.64,2.74,.64h1.29c2.22,0,2.86-.12,2.86-.64v-28.92Zm33.44-.65h-2.01c-2.58,0-2.74,.28-2.94,.72l-3.99,9.59c-1.33,3.18-2.7,6.61-3.22,8.38-.48-1.77-1.37-4.15-3.22-8.54l-3.99-9.43c-.24-.56-1.25-.72-3.42-.72h-2.26c-2.22,0-2.66,.2-2.66,.65v28.92c0,.52,.44,.64,2.74,.64h1.25c2.26,0,2.9-.12,2.9-.64v-17.16h.16s.2,.81,.52,1.53l4.59,10.76c.2,.48,.44,.68,2.58,.68h1.37c2.18,0,2.34-.16,2.54-.68l4.19-10.35c.4-.97,.68-1.93,.68-1.93h.16v17.16c0,.52,.44,.64,2.82,.64h1.21c2.22,0,2.86-.12,2.86-.64v-28.92c0-.44-.64-.65-2.86-.65"/><path class="cls-2" d="M977.37,239.51h-32.68c-.48,0-.92-.2-1.23-.51s-.5-.75-.5-1.22v-2.99c0-.48,.19-.91,.51-1.23s.75-.51,1.23-.51h32.68c.48,0,.92,.2,1.23,.52,.31,.31,.5,.75,.5,1.22v2.99c0,.48-.19,.91-.5,1.22-.31,.32-.75,.51-1.23,.51m-19.96,5.41h-12.73c-.48,0-.92,.2-1.23,.51s-.51,.75-.51,1.23v2.99c0,.48,.19,.91,.5,1.22,.31,.32,.75,.51,1.23,.51h12.73v-6.46h.01Zm21.19,.52c-.31-.32-.75-.52-1.23-.52h-12.72v6.46h12.72c.48,0,.92-.2,1.23-.51,.31-.31,.5-.75,.5-1.22v-2.99c0-.48-.19-.91-.5-1.22m0,11.87c-.31-.32-.75-.52-1.23-.52h-12.72v6.46h12.72c.48,0,.92-.2,1.23-.51,.31-.31,.5-.75,.5-1.22v-2.99c0-.48-.19-.91-.5-1.22m-21.19-.52h-12.73c-.48,0-.92,.2-1.23,.51s-.51,.75-.51,1.23v2.99c0,.48,.19,.91,.5,1.22,.31,.32,.75,.51,1.23,.51h12.73v-6.46h.01Z"/></g></g></g><path class="cls-7" d="M818.76,100c0,7.16-5.62,12.78-12.94,12.78s-13.01-5.62-13.01-12.78,5.78-12.63,13.01-12.63,12.94,5.62,12.94,12.63Zm-22.72,0c0,5.62,4.16,10.09,9.86,10.09s9.63-4.47,9.63-10.02-4.08-10.17-9.7-10.17-9.78,4.54-9.78,10.09Zm7.78,6.62h-2.93v-12.63c1.15-.23,2.77-.39,4.85-.39,2.39,0,3.46,.39,4.39,.92,.69,.54,1.23,1.54,1.23,2.77,0,1.39-1.08,2.46-2.62,2.93v.15c1.23,.46,1.93,1.39,2.31,3.08,.39,1.93,.61,2.7,.93,3.16h-3.16c-.38-.46-.61-1.62-1-3.08-.23-1.39-1-2-2.62-2h-1.39v5.08Zm.08-7.16h1.39c1.62,0,2.93-.54,2.93-1.85,0-1.15-.85-1.93-2.7-1.93-.77,0-1.31,.08-1.62,.16v3.62Z"/></g></g></svg>